<svg xmlns="http://www.w3.org/2000/svg" viewBox="0 0 600 1400" role="img" aria-label="Palm silhouette">
  <g stroke="#111111" stroke-linecap="round" stroke-linejoin="round" fill="none">
    <!-- Trunk -->
    <path d="M320 1380
             C285 1120 275 920 308 720
             C348 470 452 320 382 195" stroke-width="92"/>
    <!-- Crown base -->
    <path d="M380 210 C352 188 330 178 304 170" stroke-width="46"/>
    <!-- Fronds (main) -->
    <path d="M382 200 C280 135 185 120 70 120" stroke-width="60"/>
    <path d="M392 190 C285 95 210 65 105 40" stroke-width="56"/>
    <path d="M405 200 C305 235 210 265 90 320" stroke-width="56"/>
    <path d="M392 205 C315 280 260 355 190 470" stroke-width="52"/>

    <path d="M380 195 C470 140 540 120 585 115" stroke-width="60"/>
    <path d="M390 185 C470 85 535 55 585 40" stroke-width="56"/>
    <path d="M405 200 C485 235 540 265 585 315" stroke-width="56"/>
    <path d="M395 210 C455 290 500 360 535 465" stroke-width="52"/>

    <!-- Leaflet accents (thin strokes to suggest silhouette texture) -->
    <path d="M365 205 C270 170 190 160 95 155" stroke-width="18"/>
    <path d="M372 192 C280 118 215 95 130 78" stroke-width="16"/>
    <path d="M380 205 C300 245 220 280 125 335" stroke-width="16"/>
    <path d="M385 212 C325 290 275 360 220 455" stroke-width="14"/>

    <path d="M395 198 C470 168 520 155 585 145" stroke-width="18"/>
    <path d="M398 186 C470 118 525 92 585 78" stroke-width="16"/>
    <path d="M405 205 C470 250 520 288 585 345" stroke-width="16"/>
    <path d="M400 214 C445 295 485 365 515 455" stroke-width="14"/>
  </g>

  <!-- Coconuts -->
  <g fill="#111111">
    <circle cx="365" cy="230" r="22"/>
    <circle cx="397" cy="232" r="20"/>
    <circle cx="382" cy="256" r="18"/>
  </g>
</svg>
