<svg xmlns="http://www.w3.org/2000/svg" viewBox="0 0 324 409">
  <path d="M 55.00 391.01 L 28.00 390.93 L 26.92 390.00 L 27.23 26.00 L 28.00 25.53 L 152.00 25.49 L 176.00 26.53 L 189.00 27.68 L 205.00 29.73 L 227.00 34.84 L 244.00 40.76 L 253.00 44.76 L 262.00 49.85 L 276.00 60.42 L 282.40 67.00 L 287.29 73.00 L 290.31 77.00 L 295.29 86.00 L 299.37 97.00 L 302.08 108.00 L 303.26 117.00 L 303.61 132.00 L 302.21 147.00 L 300.09 157.00 L 297.28 166.00 L 292.26 177.00 L 287.05 185.00 L 281.00 192.58 L 273.69 200.00 L 265.00 207.26 L 256.00 213.24 L 247.00 218.24 L 238.00 222.33 L 226.00 226.44 L 212.00 230.14 L 191.00 234.21 L 168.00 236.32 L 131.00 236.53 L 129.49 237.00 L 129.43 390.00 L 129.00 390.75 L 118.00 390.85 L 117.28 390.00 L 114.55 370.00 L 112.66 347.00 L 112.25 322.00 L 112.61 301.00 L 115.65 264.00 L 118.75 241.00 L 123.60 214.00 L 126.70 199.00 L 130.75 183.00 L 142.79 142.00 L 150.00 122.20 L 151.17 123.00 L 153.31 127.00 L 158.55 143.00 L 161.73 149.00 L 163.00 149.64 L 165.00 145.55 L 170.73 160.00 L 173.00 158.87 L 176.79 167.00 L 179.00 165.79 L 180.27 167.00 L 182.22 174.00 L 182.45 180.00 L 183.00 180.60 L 186.28 176.00 L 189.82 166.00 L 190.05 163.00 L 189.48 158.00 L 187.38 153.00 L 189.00 152.48 L 189.23 151.00 L 185.32 143.00 L 178.00 133.47 L 169.00 125.81 L 163.00 121.73 L 157.43 119.00 L 157.59 118.00 L 164.00 118.94 L 174.00 121.82 L 183.00 125.80 L 192.00 131.50 L 192.83 131.00 L 193.00 128.80 L 194.00 128.46 L 206.00 137.81 L 207.07 137.00 L 205.77 133.00 L 207.00 132.62 L 217.00 141.56 L 218.14 141.00 L 217.70 139.00 L 218.00 137.84 L 227.00 142.95 L 231.00 146.45 L 234.00 150.31 L 234.47 150.00 L 234.67 148.00 L 233.25 141.00 L 230.46 135.00 L 228.00 131.98 L 223.51 128.00 L 223.18 127.00 L 224.64 126.00 L 223.01 124.00 L 218.00 119.77 L 208.00 114.68 L 198.00 111.81 L 191.00 110.51 L 175.00 110.15 L 159.00 112.14 L 158.47 112.00 L 158.21 111.00 L 164.00 108.66 L 179.00 104.87 L 191.00 104.30 L 194.00 103.42 L 201.77 103.00 L 201.83 102.00 L 198.35 99.00 L 199.00 98.47 L 213.00 99.01 L 212.49 97.00 L 213.00 96.58 L 226.00 96.30 L 231.00 96.83 L 231.35 96.00 L 225.00 90.79 L 220.00 88.19 L 219.00 86.73 L 208.00 84.35 L 195.00 84.56 L 187.00 86.49 L 173.00 92.57 L 164.00 98.60 L 156.00 105.91 L 155.14 105.00 L 155.66 104.00 L 162.00 96.06 L 173.58 87.00 L 173.75 86.00 L 171.98 85.00 L 181.05 80.00 L 180.32 79.00 L 177.77 78.00 L 187.97 72.00 L 188.27 71.00 L 186.52 70.00 L 186.81 69.00 L 188.81 68.00 L 197.00 61.68 L 203.22 60.00 L 201.00 58.56 L 197.00 57.68 L 189.00 57.09 L 185.00 57.72 L 179.00 59.70 L 173.00 63.89 L 171.00 66.17 L 169.97 66.00 L 171.22 63.00 L 170.00 62.95 L 166.00 65.64 L 161.49 70.00 L 157.76 75.00 L 155.68 79.00 L 151.93 90.00 L 149.29 104.00 L 148.00 104.05 L 146.40 91.00 L 144.40 83.00 L 140.42 74.00 L 134.00 65.24 L 130.81 62.00 L 129.00 60.95 L 128.72 63.00 L 128.00 63.88 L 125.00 60.66 L 118.00 56.40 L 117.00 56.43 L 116.00 57.74 L 110.00 55.64 L 104.00 55.02 L 97.00 55.75 L 93.00 56.73 L 91.93 58.00 L 98.00 59.91 L 103.00 62.82 L 108.88 68.00 L 107.22 70.00 L 119.25 77.00 L 119.56 78.00 L 117.00 78.70 L 116.46 80.00 L 126.00 86.97 L 131.62 92.00 L 137.39 99.00 L 141.71 106.00 L 141.00 106.67 L 137.00 102.37 L 131.00 97.35 L 123.00 91.85 L 107.00 84.83 L 98.00 82.60 L 94.00 82.37 L 93.31 83.00 L 94.58 84.00 L 94.00 84.84 L 89.00 83.73 L 85.00 83.57 L 77.00 84.78 L 72.00 86.72 L 69.00 88.70 L 61.41 96.00 L 61.00 97.01 L 68.00 95.94 L 77.00 96.45 L 78.00 98.70 L 89.00 97.59 L 89.49 98.00 L 89.27 99.00 L 87.65 101.00 L 88.00 102.23 L 98.00 99.96 L 98.51 101.00 L 97.03 102.00 L 97.00 103.24 L 110.00 103.86 L 118.00 104.85 L 127.00 106.90 L 137.95 111.00 L 137.00 111.82 L 127.00 110.60 L 109.00 109.99 L 101.00 110.65 L 88.00 113.74 L 79.00 117.59 L 71.00 123.43 L 70.32 124.00 L 70.45 125.00 L 71.47 126.00 L 66.70 130.00 L 63.59 134.00 L 60.55 141.00 L 59.00 149.01 L 60.00 149.03 L 62.00 146.43 L 66.00 142.96 L 76.00 137.45 L 77.12 138.00 L 76.70 140.00 L 78.00 140.38 L 94.00 128.57 L 94.12 130.00 L 92.63 134.00 L 93.00 134.45 L 104.00 126.64 L 112.00 122.67 L 124.00 118.72 L 134.00 117.49 L 136.49 118.00 L 127.00 121.68 L 118.00 126.45 L 111.00 131.64 L 101.93 142.00 L 101.44 143.00 L 102.00 143.61 L 104.00 144.00 L 100.57 149.00 L 98.73 153.00 L 97.79 159.00 L 98.81 167.00 L 99.84 170.00 L 102.00 173.58 L 102.55 173.00 L 102.90 168.00 L 104.76 164.00 L 109.00 160.00 L 110.00 161.18 L 111.00 161.26 L 116.10 154.00 L 122.00 143.75 L 123.00 147.21 L 124.00 147.84 L 124.93 147.00 L 130.82 136.00 L 134.76 130.00 L 141.22 123.00 L 142.00 122.32 L 142.62 123.00 L 126.65 166.00 L 119.69 186.00 L 114.55 203.00 L 106.73 233.00 L 99.81 266.00 L 96.78 284.00 L 94.60 301.00 L 91.55 336.00 L 90.62 358.00 L 90.72 376.00 L 91.50 390.00 L 91.00 390.87 L 90.00 390.95 L 55.00 391.01 Z" fill="#111111" fill-rule="evenodd"/>
  <path d="M 27.00 38.00 L 26.53 25.00 L 27.00 24.53 L 156.00 24.55 L 156.45 25.00 L 156.00 25.65 L 28.00 25.53 L 27.23 26.00 L 27.08 27.00 L 27.00 38.00 Z M 179.00 26.79 L 163.42 26.00 L 179.00 25.53 L 179.47 26.00 L 179.00 26.79 Z M 242.00 39.91 L 230.73 36.00 L 234.00 35.52 L 235.00 36.70 L 237.00 36.52 L 238.00 37.70 L 240.00 37.52 L 241.00 38.63 L 242.45 39.00 L 242.00 39.91 Z M 198.00 58.05 L 189.00 58.48 L 184.14 58.00 L 191.00 57.02 L 198.00 58.05 Z M 83.00 98.08 L 78.00 98.70 L 77.00 96.45 L 71.00 95.95 L 60.99 97.00 L 63.00 94.12 L 64.00 95.65 L 66.00 95.89 L 67.00 94.53 L 76.00 94.52 L 77.00 95.69 L 78.44 96.00 L 78.29 97.00 L 79.00 97.59 L 83.54 98.00 L 83.00 98.08 Z M 213.00 99.01 L 211.94 99.00 L 211.55 98.00 L 211.55 96.00 L 212.00 95.55 L 228.00 95.71 L 229.00 95.64 L 230.00 94.66 L 231.35 96.00 L 231.00 96.83 L 226.00 96.30 L 213.00 96.58 L 212.49 97.00 L 213.00 99.01 Z M 198.00 112.16 L 194.00 112.48 L 193.00 111.18 L 175.00 111.46 L 166.26 111.00 L 175.00 110.15 L 185.00 110.18 L 192.00 110.64 L 198.64 112.00 L 198.00 112.16 Z M 304.00 137.47 L 303.33 137.00 L 303.65 126.00 L 303.26 117.00 L 304.00 116.53 L 304.47 117.00 L 304.47 137.00 L 304.00 137.47 Z M 115.00 270.65 L 114.53 262.00 L 115.80 261.00 L 115.53 253.00 L 116.74 252.00 L 116.53 246.00 L 117.74 245.00 L 117.52 239.00 L 118.69 238.00 L 118.54 236.00 L 119.00 235.54 L 119.71 236.00 L 117.70 248.00 L 115.00 270.65 Z M 130.00 245.48 L 129.32 245.00 L 129.36 238.00 L 130.00 236.55 L 170.00 236.20 L 170.48 237.00 L 170.00 237.48 L 131.00 237.37 L 130.47 238.00 L 130.48 245.00 L 130.00 245.48 Z M 130.00 391.46 L 117.00 391.40 L 116.60 391.00 L 117.00 388.20 L 117.28 390.00 L 118.00 390.85 L 128.00 390.87 L 129.00 390.75 L 129.43 390.00 L 129.32 257.00 L 130.00 256.52 L 130.48 257.00 L 130.46 391.00 L 130.00 391.46 Z M 112.00 349.48 L 111.52 349.00 L 111.52 297.00 L 112.00 296.52 L 112.85 297.00 L 112.25 319.00 L 112.79 349.00 L 112.00 349.48 Z M 91.00 382.20 L 90.62 358.00 L 91.00 348.70 L 91.00 382.20 Z M 116.00 388.46 L 115.54 388.00 L 115.78 383.00 L 114.52 382.00 L 115.00 373.42 L 116.94 388.00 L 116.00 388.46 Z M 92.00 391.46 L 90.00 391.05 L 55.49 391.00 L 91.00 390.87 L 91.50 390.00 L 91.33 387.00 L 92.00 386.52 L 92.48 387.00 L 92.46 391.00 L 92.00 391.46 Z M 49.00 391.00 L 26.68 391.00 L 27.00 390.15 L 28.00 390.93 L 49.00 391.00 Z" fill="#ffffff" fill-rule="evenodd"/>
</svg>